HIERARCHY
ROOT pelvis
{
  OFFSET 0 100 0
  CHANNELS 6 Xposition Yposition Zposition Zrotation Xrotation Yrotation
  JOINT pelvis_right_femur
  {
    OFFSET -10.78128 -3.44521 -0.5502486
    CHANNELS 3 Zrotation Xrotation Yrotation
    JOINT right_femur_tibia
    {
      OFFSET -0.8047443 -44.0398 -0.1307829
      CHANNELS 3 Zrotation Xrotation Yrotation
      JOINT right_tibia_foot
      {
        OFFSET 3.006224 -47.83518 -5
        CHANNELS 3 Zrotation Xrotation Yrotation
        End Site
        {
          OFFSET 0 -5 15
        }
      }
    }
  }
  JOINT pelvis_left_femur
  {
    OFFSET 10.78128 -3.44521 -0.5502486
    CHANNELS 3 Zrotation Xrotation Yrotation
    JOINT left_femur_tibia
    {
      OFFSET 0.8047443 -44.0398 -0.1307829
      CHANNELS 3 Zrotation Xrotation Yrotation
      JOINT left_tibia_foot
      {
        OFFSET -4.370144 -48.10324 -4.275266
        CHANNELS 3 Zrotation Xrotation Yrotation
        End Site
        {
          OFFSET 0 -5 15
        }
      }
    }
  }
  JOINT pelvis_spine1
  {
    OFFSET 0 6.468898 -3.129235
    CHANNELS 3 Zrotation Xrotation Yrotation
    JOINT spine1
    {
      OFFSET 0 23.15396 4.99043
      CHANNELS 3 Zrotation Xrotation Yrotation
      JOINT spine2
      {
        OFFSET 0 20.79997 -5.064912
        CHANNELS 3 Zrotation Xrotation Yrotation
        JOINT neck
        {
          OFFSET 0 14.38658 9.616178
          CHANNELS 3 Zrotation Xrotation Yrotation
          End Site
          {
            OFFSET 0 20 0
          }
        }
      }
      JOINT right_manubrium
      {
        OFFSET -5.722621 16.35077 3.967754
        CHANNELS 3 Zrotation Xrotation Yrotation
        JOINT right_clavicle
        {
          OFFSET -13.16364 1.694482 -4.693211
          CHANNELS 3 Zrotation Xrotation Yrotation
          JOINT right_humerus
          {
            OFFSET -28.5034 -0.3100689 -2.792744
            CHANNELS 3 Zrotation Xrotation Yrotation
            JOINT right_radius
            {
              OFFSET -25.15693 0.02248979 -1.271978
              CHANNELS 3 Zrotation Xrotation Yrotation
              End Site
              {
                OFFSET -15 0 0
              }
            }
          }
        }
      }
      JOINT left_manubrium
      {
        OFFSET 5.722621 16.35077 3.967754
        CHANNELS 3 Zrotation Xrotation Yrotation
        JOINT left_clavicle
        {
          OFFSET 13.16364 1.694482 -4.693211
          CHANNELS 3 Zrotation Xrotation Yrotation
          JOINT left_humerus
          {
            OFFSET 29.39168 -1.063119 -2.237045
            CHANNELS 3 Zrotation Xrotation Yrotation
            JOINT left_radius
            {
              OFFSET 24.59957 -0.9528479 0.9047498
              CHANNELS 3 Zrotation Xrotation Yrotation
              End Site
              {
                OFFSET 15 -0 -0
              }
            }
          }
        }
      }
    }
  }
}
MOTION
Frames: 15
Frame Time: 0.0416666666667
-63.15414 102.76 3135.035 0.032897 -8.616568 -8.939393 0.1403044 -2.266784 1.997398 -0 54.66666 -0 -1.997099 6.206021 -5.046875 -5.190957 -2.161809 -8.341147 -0 18.2173 -0 -0.9751755 -12.44704 17.32507 -1.585891 0.2650247 2.962661 -1.204994 10.30811 -2.667345 2.493322 25.63445 5.625673 3.52454 -17.24813 7.404746 0.5639654 -18.38506 10.57507 87.02214 24.83123 -8.675366 -0 0 11.39853 -23.79637 8.383374 12.9273 5.446672 -18.15879 -4.575179 -91.75879 19.73488 18.55611 0 0 -4.529775 8.962749 17.03817 2.338852
-63.32389 103.4682 3140.49 -0.2722761 -8.163154 -7.884372 0.4067445 -9.232376 1.495558 -0 50.52412 -0 -2.624726 5.094251 -5.588828 -4.985352 2.431033 -8.29193 -0 15.61025 -0 -0.9440539 -14.02497 16.5426 -1.529283 -0.1042843 2.731301 -1.15325 10.93201 -3.011795 2.353014 25.47117 5.859221 3.653758 -17.58819 7.467015 0.6919733 -18.51155 10.82494 87.72309 24.42987 -10.01283 -0 0 10.71918 -24.28624 8.848739 13.00965 5.622469 -19.10011 -5.048516 -91.21635 19.04641 18.00592 0 0 -6.075377 10.23777 17.42333 1.001829
-63.54006 103.5139 3145.78 -0.3447076 -7.522208 -7.005333 0.3559333 -15.44757 0.6328723 -0 42.25914 -0 -3.016446 3.153648 -5.884856 -4.852029 6.391786 -8.181674 -0 13.30265 -0 -1.14128 -15.86998 15.67598 -1.445074 -0.4864173 2.537924 -1.077845 11.58157 -3.392767 2.21822 25.28385 6.048312 3.75335 -17.87323 7.496531 0.7942257 -18.63593 11.09151 88.44342 23.85951 -11.45239 -0 0 10.11417 -24.73166 9.344547 13.01535 5.806731 -20.09539 -5.581774 -90.65295 18.34454 17.41405 0 0 -7.846424 11.46553 17.74205 -0.3164217
-63.84169 102.8356 3151.111 -0.06186393 -6.816353 -6.310241 -0.02314882 -20.41467 -0.6030658 -0 31.51513 -0 -3.059704 1.17782 -6.010958 -4.967781 9.744789 -7.996722 -0 11.83358 -0 -1.436345 -17.90115 14.75893 -1.326434 -0.873396 2.396779 -0.9781208 12.24743 -3.808865 2.090783 25.07267 6.17845 3.818157 -18.10183 7.479992 0.8441992 -18.76921 11.36637 89.18415 23.11701 -12.97006 -0 0 9.606426 -25.1123 9.853024 12.9233 5.994126 -21.1382 -6.168994 -90.08479 17.63473 16.80207 0 0 -9.820179 12.60685 17.98439 -1.58519
-64.26939 101.5654 3156.694 0.5025382 -6.104692 -5.739316 -0.5087786 -23.91293 -1.920584 -0 20.67624 -0 -2.854536 0.003357126 -6.066896 -5.309712 12.66701 -7.733323 -0 11.64613 -0 -1.831409 -19.79127 13.85273 -1.167353 -1.254095 2.323224 -0.8557044 12.91712 -4.255218 1.971912 24.83844 6.236918 3.846085 -18.27477 7.40388 0.8159067 -18.92359 11.63952 89.94155 22.21794 -14.52756 -0 0 9.220459 -25.4096 10.35511 12.71427 6.177087 -22.2166 -6.799233 -89.53158 16.91887 16.19932 0 0 -11.94795 13.62287 18.14274 -2.776913
-64.86167 99.9959 3162.707 1.072608 -5.448217 -5.220009 -0.6831474 -25.86302 -2.775258 -0 12.18142 -0 -2.582607 -0.0726875 -6.209371 -5.634616 15.27597 -7.42741 -0 13.14803 -0 -2.545949 -20.94712 12.98174 -0.9642116 -1.614199 2.33276 -0.7151612 13.57528 -4.722105 1.861816 24.5824 6.214612 3.839281 -18.39524 7.255719 0.6884751 -19.11205 11.90019 90.70406 21.20214 -16.06927 -0 0 8.983514 -25.60927 10.83129 12.37564 6.345281 -23.3103 -7.45507 -89.01787 16.19407 15.64612 0 0 -14.14493 14.47837 18.21126 -3.869453
-65.64996 98.49634 3169.235 1.310584 -4.981086 -4.73171 -0.1276981 -26.28531 -2.652673 -0 7.719846 -0 -2.40875 0.5258394 -6.591343 -5.629914 17.45878 -7.136309 -0 16.73182 -0 -3.651596 -20.69661 12.25242 -0.7177936 -1.936956 2.439232 -0.5641044 14.20474 -5.194015 1.759504 24.30627 6.107833 3.804403 -18.46911 7.026135 0.4519617 -19.34792 12.13843 91.44964 20.13628 -17.52157 -0 0 8.926366 -25.70394 11.26326 11.90743 6.484893 -24.38781 -8.111627 -88.57423 15.45288 15.19729 0 0 -16.28144 15.14536 18.18566 -4.846843
-66.64088 97.42392 3176.233 1.007133 -4.886304 -4.350285 1.296298 -25.30105 -1.398384 -0 7.633757 -0 -2.43961 1.067921 -7.22297 -5.122349 18.81 -6.902124 -0 22.69516 -0 -4.835837 -18.68213 11.94872 -0.4352966 -2.205223 2.652194 -0.4122967 14.78882 -5.649765 1.66294 24.0125 5.919393 3.751219 -18.50476 6.711625 0.1133744 -19.64469 12.34737 92.14405 19.10969 -18.79599 -0 0 9.083223 -25.6947 11.63663 11.32828 6.577747 -25.40471 -8.737187 -88.23768 14.68616 14.92451 0 0 -18.18036 15.60612 18.06401 -5.697221
-67.79045 97.03771 3183.519 0.2343581 -5.29891 -4.23728 3.254218 -23.03221 0.6095423 -0 10.68505 -0 -2.657151 0.9769918 -7.915923 -4.226861 18.74509 -6.720703 -0 30.91134 -0 -5.722815 -15.24291 12.31065 -0.1313709 -2.405081 2.973945 -0.2694633 15.31482 -6.064431 1.569696 23.70472 5.658121 3.689035 -18.51198 6.317333 -0.2993667 -20.01646 12.52586 92.74156 18.21994 -19.79775 -0 0 9.489882 -25.59078 11.94468 10.67934 6.600596 -26.30497 -9.296866 -88.05009 13.88882 14.91582 0 0 -19.62781 15.85468 17.84933 -6.407151
-69.00521 97.41849 3190.828 -0.6584201 -6.2028 -4.545671 5.057157 -19.54518 2.629305 -0 14.59416 -0 -2.904037 0.04945625 -8.379342 -3.312562 16.79671 -6.542237 -0 40.46685 -0 -6.237418 -11.39673 13.28571 0.17314 -2.530566 3.397356 -0.1421949 15.77789 -6.413419 1.478004 23.38816 5.336142 3.621566 -18.49905 5.858273 -0.7387558 -20.47899 12.68024 93.18934 17.54732 -20.44007 -0 0 10.17974 -25.40669 12.19199 10.02277 6.52557 -27.0275 -9.760201 -88.05311 13.06685 15.26926 0 0 -20.40446 15.89549 17.55336 -6.953295
-70.18832 98.43117 3197.899 -1.270755 -7.408064 -5.295834 6.098405 -14.98361 4.021536 -0 17.31662 -0 -3.023366 -1.573809 -8.398978 -2.727081 12.90449 -6.340067 -0 49.67434 -0 -6.537355 -8.313536 14.5944 0.4556103 -2.587835 3.905927 -0.03129792 16.18302 -6.677927 1.387631 23.06879 4.964494 3.542671 -18.46795 5.357156 -1.146647 -21.05091 12.82345 93.43624 17.12544 -20.66113 -0 0 11.1785 -25.15815 12.39651 9.433336 6.323572 -27.51849 -10.11087 -88.27941 12.24098 16.07872 0 0 -20.33793 15.73889 17.19916 -7.295283
-71.28986 99.76833 3204.564 -1.422893 -8.645927 -6.347652 6.239561 -9.698146 4.609297 -0 18.06684 -0 -3.033376 -3.594014 -7.957915 -2.513814 7.476798 -6.152454 -0 56.56859 -0 -6.748205 -6.671185 15.94981 0.6982071 -2.596349 4.476524 0.06871551 16.54248 -6.849807 1.29977 22.75028 4.549472 3.436278 -18.4097 4.838464 -1.469219 -21.75331 12.97063 93.44366 16.92291 -20.43792 -0 0 12.49964 -24.85943 12.58871 8.98558 5.972219 -27.74625 -10.35298 -88.7416 11.44182 17.41338 0 0 -19.36292 15.39493 16.81919 -7.375552
-72.30737 101.0613 3210.792 -1.230598 -9.666143 -7.49862 5.79564 -4.191448 4.625573 -0 17.28299 -0 -3.068067 -5.749904 -7.206584 -2.405368 1.184938 -5.991013 -0 59.56647 -0 -6.867227 -6.384357 17.17439 0.8934559 -2.585479 5.083152 0.1675257 16.86797 -6.933652 1.215711 22.42869 4.092756 3.281692 -18.30441 4.321984 -1.671593 -22.60604 13.1323 93.19444 16.8507 -19.7906 -0 0 14.14226 -24.52424 12.80802 8.742713 5.467184 -27.7113 -10.50724 -89.42262 10.69668 19.29606 0 0 -17.56332 14.86874 16.44749 -7.129564
-73.24716 101.993 3216.664 -0.9613028 -10.26277 -8.594693 5.223636 1.047912 4.412669 -0 15.8571 -0 -3.146154 -7.912856 -6.323984 -2.038588 -5.32062 -5.744021 -0 57.93547 -0 -6.849487 -6.835045 18.17804 1.045585 -2.587439 5.698939 0.2756684 17.1606 -6.945285 1.135385 22.08839 3.596169 3.06072 -18.13049 3.821628 -1.745781 -23.6208 13.30853 92.69772 16.79542 -18.77631 -0 0 16.08867 -24.16868 13.0979 8.752161 4.831353 -27.44513 -10.59596 -90.27091 10.01741 21.68765 0 0 -15.1748 14.16118 16.10924 -6.503565
-74.09841 102.3686 3222.327 -0.8434616 -10.29119 -9.567609 4.840767 5.677214 4.191327 -0 14.49419 -0 -3.106019 -10.06716 -5.410838 -1.1756 -11.52473 -5.235763 -0 51.98178 -0 -6.706243 -7.328386 18.89296 1.167363 -2.629215 6.29524 0.401349 17.40537 -6.90738 1.057665 21.70408 3.068334 2.760627 -17.88308 3.353165 -1.71228 -24.79314 13.48681 91.99367 16.66255 -17.47866 -0 0 18.29651 -23.81311 13.4991 9.045658 4.114942 -26.99748 -10.62499 -91.2019 9.401297 24.48186 0 0 -12.5475 13.27671 15.81461 -5.473781
